# xmcd
# 
# Track frame offsets:
#     182
#     14600
#     35055
#     57045
#     82650
#     103875
#     115170
#     140222
#     177062
#     196282
#     218465
#     239257
#     248830
#     263787
# 
# Disc length: 3736
# 
# Revision: 3
# Processed by: cddbd v1.5.2PL0 Copyright (c) Steve Scherf et al.
# Submitted via: fre:ac v1.0.17
# 
DISCID=bd0e960e
DTITLE=Jean-Jacques Milteau - Live
DYEAR=1992
DGENRE=Rock
TTITLE0=sweet home chicago
TTITLE1=get off of my life woman
TTITLE2=further on up the road
TTITLE3=i can't hold out
TTITLE4=rollin' and tumblin'
TTITLE5=magnolia
TTITLE6=key to the highway
TTITLE7=lonely crowd
TTITLE8=seacruise
TTITLE9=BB kong
TTITLE10=i've got to go
TTITLE11=lonesome train
TTITLE12=robert johnson
TTITLE13=don't you mess with me
EXTD=YEAR: 1992
EXTT0=
EXTT1=
EXTT2=
EXTT3=
EXTT4=
EXTT5=
EXTT6=
EXTT7=
EXTT8=
EXTT9=
EXTT10=
EXTT11=
EXTT12=
EXTT13=
PLAYORDER=
